<svg xmlns="http://www.w3.org/2000/svg" width="1459" height="833" fill="none" viewBox="0 0 1459 833">
  <g opacity=".4">
    <path fill="#fff" d="M1459 832.87H0V0h1459z"/>
    <mask id="footer_a" width="1459" height="833" x="0" y="0" maskUnits="userSpaceOnUse" style="mask-type:luminance">
      <path fill="#fff" d="M1459 832.87H0V0h1459z"/>
    </mask>
    <g mask="url(#footer_a)" style="mix-blend-mode:multiply">
      <path fill="url(#footer_b)" d="M1543.73 37.02h-1577v-1.4h1577z"/>
      <path fill="url(#footer_c)" d="M1543.73 82.56h-1577v-1.4h1577z"/>
      <path fill="url(#footer_d)" d="M1543.73 128.1h-1577v-1.4h1577z"/>
      <path fill="url(#footer_e)" d="M1543.73 173.63h-1577v-1.39h1577z"/>
      <path fill="url(#footer_f)" d="M1543.73 219.17h-1577v-1.39h1577z"/>
      <path fill="url(#footer_g)" d="M1543.73 264.71h-1577v-1.39h1577z"/>
      <path fill="url(#footer_h)" d="M1543.73 310.25h-1577v-1.39h1577z"/>
      <path fill="url(#footer_i)" d="M1543.73 355.8h-1577v-1.4h1577z"/>
      <path fill="url(#footer_j)" d="M1543.73 401.33h-1577v-1.4h1577z"/>
      <path fill="url(#footer_k)" d="M1543.73 446.87h-1577v-1.4h1577z"/>
      <path fill="url(#footer_l)" d="M1543.73 492.41h-1577v-1.4h1577z"/>
      <path fill="url(#footer_m)" d="M1543.73 537.95h-1577v-1.4h1577z"/>
      <path fill="url(#footer_n)" d="M1543.73 583.49h-1577v-1.4h1577z"/>
      <path fill="url(#footer_o)" d="M1543.73 629.03h-1577v-1.4h1577z"/>
      <path fill="url(#footer_p)" d="M1543.73 674.57h-1577v-1.4h1577z"/>
      <path fill="url(#footer_q)" d="M1543.73 720.1h-1577v-1.38h1577z"/>
      <path fill="url(#footer_r)" d="M1543.73 765.65h-1577v-1.4h1577z"/>
      <path fill="url(#footer_s)" d="M1543.73 811.19h-1577v-1.4h1577z"/>
      <path fill="url(#footer_t)" d="M1543.73 722.18a527 527 0 0 0-27.05 17.89c-18.94 13.43-34.82 26.93-47.2 40.12-23.03 24.55-30.8 45.67-33.39 56.06-3.1 12.51-2.46 19.64-2.46 19.71l-1.38.14c-.03-.3-.67-7.42 2.49-20.19 2.62-10.52 10.47-31.9 33.73-56.67 12.45-13.26 28.4-26.82 47.41-40.31a529 529 0 0 1 27.86-18.38z"/>
      <path fill="url(#footer_u)" d="M1543.73 694.24c-27.87 15.44-52.13 30.84-72.07 45.82-17.88 13.42-32.87 26.93-44.58 40.12-21.75 24.56-29.09 45.67-31.53 56.07-2.94 12.53-2.33 19.65-2.32 19.72l-1.39.13c-.03-.3-.64-7.39 2.35-20.17 2.47-10.52 9.89-31.89 31.85-56.67 11.76-13.27 26.83-26.83 44.78-40.31 20.17-15.14 44.71-30.71 72.92-46.3z"/>
      <path fill="url(#footer_v)" d="M1543.73 667.21a1013 1013 0 0 0-46.73 25.52c-27.3 15.93-50.98 31.85-70.36 47.32-16.83 13.43-30.94 26.93-41.94 40.11-20.48 24.56-27.39 45.67-29.69 56.08-2.77 12.56-2.19 19.66-2.19 19.73l-1.38.13c-.03-.3-.61-7.36 2.21-20.16 2.33-10.52 9.31-31.88 29.97-56.67 11.07-13.26 25.25-26.82 42.15-40.31 19.44-15.5 43.17-31.46 70.53-47.43 14.53-8.48 30.4-17.13 47.43-25.89z"/>
      <path fill="url(#footer_w)" d="M1543.73 640.06c-36.42 17.92-68.78 35.63-96.15 52.66-25.61 15.94-47.8 31.85-65.96 47.31-15.77 13.43-29 26.93-39.32 40.12-18.24 23.32-25.2 43.37-27.83 56.08-2.6 12.59-2.06 19.67-2.06 19.74l-1.39.12c-.02-.3-.57-7.34 2.08-20.15 2.66-12.86 9.69-33.12 28.09-56.66 10.38-13.26 23.68-26.83 39.52-40.31 18.22-15.5 40.46-31.46 66.13-47.43 27.56-17.15 60.16-35 96.89-53.04z"/>
      <path fill="url(#footer_x)" d="M1543.73 612.04a1694 1694 0 0 0-53.61 26.83c-34.91 18.32-65.85 36.43-91.96 53.84-23.89 15.93-44.6 31.85-61.55 47.3-14.72 13.43-27.07 26.92-36.7 40.12-17.03 23.33-23.52 43.38-25.98 56.08-2.43 12.62-1.93 19.7-1.92 19.76l-1.39.11c-.02-.29-.53-7.3 1.94-20.13 2.48-12.85 9.04-33.1 26.21-56.64 9.69-13.27 22.1-26.84 36.89-40.32 17.01-15.5 37.77-31.47 61.72-47.44 26.15-17.43 57.13-35.57 92.08-53.91 16.82-8.82 34.98-17.9 54.27-27.14z"/>
      <path fill="url(#footer_y)" d="M1543.73 582.38c-40.91 19.51-77.78 38.5-109.61 56.48-32.42 18.32-61.14 36.43-85.38 53.83-22.18 15.93-41.41 31.85-57.16 47.3-13.67 13.43-25.13 26.93-34.07 40.12-15.81 23.33-21.85 43.38-24.12 56.1-2.27 12.64-1.79 19.7-1.78 19.77l-1.39.1c-.02-.29-.5-7.28 1.8-20.12s8.39-33.1 24.34-56.63c8.99-13.27 20.52-26.84 34.25-40.33 15.8-15.5 35.08-31.47 57.32-47.44 24.28-17.43 53.05-35.57 85.51-53.91 32.01-18.08 69.12-37.19 110.3-56.81z"/>
      <path fill="url(#footer_z)" d="M1543.73 550.25a2683 2683 0 0 0-58.19 28.9c-40.26 20.63-76.4 40.72-107.41 59.7-29.91 18.3-56.43 36.42-78.8 53.82-20.48 15.93-38.23 31.85-52.75 47.3-12.62 13.42-23.2 26.92-31.46 40.11-14.59 23.33-20.17 43.4-22.27 56.1-2.09 12.68-1.65 19.72-1.65 19.8l-1.39.09c-.02-.3-.46-7.27 1.66-20.11s7.75-33.09 22.47-56.62c8.3-13.27 18.94-26.84 31.62-40.33 14.57-15.5 32.38-31.47 52.91-47.44 22.42-17.44 48.98-35.59 78.94-53.92 31.03-18.99 67.2-39.1 107.49-59.75a2699 2699 0 0 1 58.83-29.2z"/>
      <path fill="url(#footer_A)" d="M1543.73 514.6c-46.89 23.31-87.18 44.43-123.13 64.53-36.92 20.65-70.04 40.73-98.45 59.7-27.43 18.31-51.73 36.42-72.24 53.83-18.77 15.93-35.03 31.84-48.35 47.3-11.57 13.41-21.27 26.91-28.83 40.1-10.59 18.47-17.65 37.88-20.42 56.12-1.93 12.7-1.52 19.73-1.51 19.8l-1.4.09c-.02-.3-.42-7.24 1.52-20.1 2.79-18.4 9.92-37.98 20.59-56.6 7.61-13.27 17.37-26.84 28.99-40.33 13.36-15.5 29.68-31.47 48.5-47.44 20.55-17.44 44.9-35.59 72.37-53.92 28.44-19 61.59-39.1 98.54-59.76 36.13-20.2 76.64-41.43 123.82-64.87z"/>
      <path fill="url(#footer_B)" d="M1543.73 473.94a4838 4838 0 0 0-75.42 40.26c-42.93 23.46-79.78 44.7-112.65 64.91-33.55 20.65-63.66 40.73-89.49 59.7-24.94 18.32-47.03 36.43-65.67 53.83-39.6 36.98-60.01 67.94-70.17 87.4-9.77 18.74-16.01 37.63-18.57 56.14-1.74 12.7-1.37 19.74-1.36 19.8l-1.4.09c-.01-.3-.39-7.22 1.38-20.08 2.58-18.67 8.87-37.72 18.72-56.6 10.2-19.56 30.7-50.66 70.44-87.78 18.68-17.43 40.82-35.58 65.8-53.92 25.86-19 56.01-39.1 89.59-59.76 32.89-20.24 69.76-41.48 112.71-64.95a4827 4827 0 0 1 76.09-40.62z"/>
      <path fill="url(#footer_C)" d="M1543.73 425.86q-16.65 9.46-33.08 18.85c-49.11 28.09-85.67 49.52-118.54 69.47-38.67 23.48-71.83 44.71-101.39 64.92-30.2 20.64-57.3 40.73-80.54 59.69-22.44 18.31-42.32 36.42-59.09 53.82-35.64 36.98-54.01 67.94-63.15 87.4-8.79 18.74-14.42 37.64-16.72 56.15-1.58 12.73-1.24 19.75-1.23 19.83l-1.4.07c0-.07-.35-7.2 1.25-20.07 2.32-18.66 7.98-37.7 16.84-56.58 9.18-19.55 27.63-50.66 63.4-87.77 16.81-17.44 36.74-35.58 59.22-53.93 23.27-19 50.4-39.1 80.63-59.77 29.58-20.21 62.76-41.46 101.45-64.95 32.89-19.97 69.46-41.4 118.58-69.5q16.77-9.58 33.78-19.24z"/>
      <path fill="url(#footer_D)" d="M1543.73 366.18c-24.23 15.7-48.38 31.14-72.2 46.34q-25.4 16.2-50.26 32.17c-62.81 40.43-135.16 88-195.49 134.39-26.83 20.64-50.92 40.72-71.58 59.7-19.94 18.3-37.61 36.4-52.53 53.8-31.68 36.99-48.01 67.94-56.13 87.4-19.12 45.9-16 75.68-15.96 75.97l-1.39.16c-.03-.3-3.21-30.4 16.07-76.66 11.7-28.04 31.19-58.4 56.36-87.77 14.94-17.45 32.66-35.6 52.64-53.94 20.69-18.99 44.8-39.1 71.68-59.77 60.36-46.4 132.74-94 195.58-134.44 16.56-10.67 33.34-21.38 50.26-32.18 24.07-15.36 48.47-30.96 72.96-46.83z"/>
      <path fill="url(#footer_E)" d="M1543.73 285.57q-5.52 4.49-11.23 9.05c-51.73 41.34-105.07 80.26-156.67 117.9q-22.2 16.19-43.93 32.15c-54.97 40.43-118.28 88-171.05 134.38-45.69 40.16-82.23 78.35-108.59 113.5-21.94 29.27-38.92 59.5-49.12 87.4-16.88 46.32-14 75.71-13.97 76l-1.4.15c-.02-.3-2.95-29.98 14.06-76.62 10.24-28.04 27.29-58.4 49.31-87.77 26.42-35.22 63.02-73.48 108.79-113.7 52.81-46.41 116.15-94.01 171.14-134.46q21.73-15.97 43.93-32.14c51.58-37.64 104.92-76.55 156.62-117.87q6.16-4.94 12.11-9.76z"/>
      <path fill="url(#footer_F)" d="M1543.73 152.73c-14.35 20.19-31.03 40.82-50.59 62.58-22.19 24.68-47.92 50.61-78.66 79.28-44.25 41.26-90.06 80.26-134.37 117.98q-19 16.15-37.57 32.07c-47.11 40.42-101.37 88-146.61 134.37-39.16 40.16-70.48 78.35-93.07 113.5-18.8 29.27-33.37 59.5-42.11 87.41-14.6 46.7-12.01 75.76-11.99 76.04l-1.38.14c-.03-.3-2.65-29.6 12.04-76.6 8.77-28.03 23.39-58.37 42.26-87.75 22.64-35.22 54.02-73.48 93.25-113.71 45.28-46.42 99.57-94.02 146.7-134.46a12363 12363 0 0 1 37.58-32.07c44.29-37.71 90.1-76.7 134.32-117.93 30.71-28.65 56.42-54.56 78.58-79.2 20.05-22.3 37.04-43.42 51.63-64.08v2.44z"/>
      <path fill="url(#footer_G)" d="M952.22 691.8c18.87-35.22 45-73.48 77.7-113.71 30.01-36.92 66.57-77.13 122.25-134.47q15.42-15.86 31.23-31.98c36.99-37.8 75.24-76.88 112.02-118.02 25.59-28.64 47-54.54 65.47-79.2 21.32-28.46 38.55-54.99 52.67-81.1 29.38-54.38 45.2-110.15 45.94-161.6h1.39c-.74 51.68-16.62 107.68-46.11 162.25-14.15 26.18-31.42 52.77-52.77 81.28-18.5 24.69-39.94 50.62-65.56 79.3-36.79 41.16-75.05 80.25-112.06 118.06q-15.8 16.12-31.23 31.98c-55.65 57.3-92.19 97.49-122.17 134.37-32.64 40.17-58.73 78.35-77.56 113.49-15.9 29.7-27.7 59.11-35.09 87.44-12.25 47.05-10.01 75.8-9.99 76.08l-1.39.12c-.02-.29-2.29-29.24 10.03-76.55 7.42-28.43 19.27-57.95 35.22-87.74"/>
      <path fill="url(#footer_H)" d="M902.75 691.85c15.1-35.22 36.01-73.48 62.17-113.7 31.12-47.85 70.37-98.26 111.93-151.63 32.99-42.37 67.1-86.17 100.47-132.84 43.49-60.84 73.52-111.78 94.51-160.3 23.86-55.2 36.19-109.55 36.77-161.65h1.39c-.57 52.3-12.95 106.84-36.88 162.2-21.03 48.62-51.11 99.64-94.66 160.56-33.39 46.7-67.5 90.5-100.5 132.88-41.54 53.35-80.78 103.74-111.86 151.54-26.1 40.16-46.99 78.35-62.05 113.5-12.72 29.7-22.17 59.12-28.08 87.46-9.87 47.36-8.01 75.84-8 76.12l-1.39.1c-.02-.29-1.89-28.94 8.02-76.5 5.94-28.43 15.41-57.95 28.17-87.73"/>
      <path fill="url(#footer_I)" d="M899.9 578.22c23.15-47.44 52.71-98.1 84.02-151.72 24.79-42.48 50.43-86.4 75.28-132.75 32.62-60.84 55.15-111.78 70.9-160.32 17.9-55.2 27.15-109.57 27.58-161.7h1.39c-.43 52.28-9.71 106.8-27.64 162.14-15.78 48.61-38.34 99.63-71 160.54-24.87 46.37-50.51 90.3-75.31 132.8-31.3 53.6-60.84 104.23-83.96 151.62-46.32 95.02-62.24 166.72-67.6 201-7.45 47.61-6.02 75.88-6 76.16l-1.4.08c-.02-.28-1.46-28.69 6.01-76.46 5.39-34.36 21.34-106.2 67.74-201.39"/>
      <path fill="url(#footer_J)" d="M834.9 578.3c15.31-47.06 35.1-97.93 56.05-151.8 16.56-42.58 33.7-86.62 50.15-132.66 43.62-122.04 65.07-227.45 65.64-322.12h1.39c-.56 94.83-22.05 200.4-65.72 322.59-16.46 46.06-33.6 90.1-50.16 132.7-20.95 53.84-40.73 104.7-56.02 151.72-30.89 95.04-41.5 166.76-45.09 201.05-4.98 47.8-4 75.94-4 76.21l-1.39.05c0-.28-.99-28.49 4.01-76.4 3.58-34.35 14.22-106.18 45.14-201.34"/>
      <path fill="url(#footer_K)" d="M796.24 436.47c27.72-141.62 59.1-301.99 59.6-464.74h1.4c-.51 162.89-31.9 323.33-59.63 465-9.86 50.4-19.18 98-26.32 141.9-26.57 163.61-24.57 276.27-24.55 277.38l-1.39.03c-.02-1.12-2.03-113.89 24.57-277.63 7.15-43.92 16.47-91.53 26.33-141.94"/>
      <path fill="url(#footer_L)" d="M706.34 856.03h-1.4v-884.3h1.4z"/>
      <path fill="url(#footer_M)" d="M555.43-28.28c.51 162.76 31.88 323.13 59.6 464.75 9.87 50.4 19.19 98.01 26.33 141.94 26.6 163.74 24.6 276.51 24.57 277.63l-1.39-.03c.02-1.11 2.03-113.77-24.55-277.38-7.14-43.9-16.46-91.5-26.32-141.9-27.74-141.68-59.12-302.11-59.63-465z"/>
      <path fill="url(#footer_N)" d="M404.54-28.28c.56 94.67 22.02 200.08 65.64 322.13 16.46 46.03 33.58 90.07 50.15 132.65 20.95 53.87 40.74 104.74 56.04 151.8 30.93 95.17 41.56 167 45.15 201.34 4.99 47.92 4.02 76.13 4 76.41l-1.39-.05c.01-.28.99-28.4-4-76.22-3.57-34.29-14.19-106-45.08-201.04-15.3-47.03-35.07-97.9-56.02-151.74-16.57-42.59-33.7-86.63-50.17-132.69-43.67-122.2-65.15-227.75-65.72-322.59z"/>
      <path fill="url(#footer_O)" d="M253.6-28.28c.43 52.14 9.68 106.5 27.58 161.7 15.75 48.55 38.27 99.49 70.9 160.33 24.85 46.35 50.49 90.27 75.28 132.75 31.3 53.62 60.87 104.27 84 151.71 46.41 95.18 62.37 167.03 67.74 201.4 7.47 47.77 6.03 76.17 6.02 76.45l-1.4-.08c.02-.28 1.45-28.55-6-76.16-5.36-34.28-21.28-105.98-67.6-201-23.12-47.4-52.67-98.02-83.96-151.62-24.8-42.5-50.45-86.43-75.31-132.8-32.66-60.92-55.22-111.93-71-160.54C261.93 78.5 252.64 24 252.22-28.28z"/>
      <path fill="url(#footer_P)" d="M102.68-28.28c.57 52.1 12.92 106.47 36.76 161.65 21 48.52 51.04 99.46 94.53 160.3 33.37 46.66 67.47 90.47 100.46 132.83 41.56 53.38 80.81 103.8 111.93 151.64 26.16 40.23 47.07 78.49 62.16 113.7 12.76 29.79 22.24 59.3 28.17 87.73 9.9 47.57 8.04 76.21 8.02 76.5l-1.4-.1c.02-.28 1.88-28.76-7.99-76.12-5.91-28.33-15.36-57.75-28.08-87.45-15.06-35.15-35.94-73.33-62.05-113.5-31.09-47.8-70.32-98.2-111.86-151.54-33-42.37-67.12-86.19-100.5-132.88-43.55-60.92-73.63-111.94-94.67-160.56-23.92-55.35-36.3-109.9-36.88-162.2z"/>
      <path fill="url(#footer_Q)" d="m504.3 856.09-1.38-.12c.03-.29 2.27-29.03-9.99-76.08-7.38-28.32-19.2-57.74-35.1-87.43-18.82-35.15-44.91-73.33-77.55-113.5-29.98-36.89-66.52-77.07-122.17-134.37q-15.42-15.86-31.22-31.98c-37-37.8-75.27-76.9-112.06-118.07-25.62-28.67-47.06-54.6-65.56-79.29-21.36-28.52-38.62-55.1-52.77-81.28a417 417 0 0 1-29.76-68.94V60.5a412 412 0 0 0 30.98 72.82c14.12 26.1 31.35 52.64 52.67 81.1 18.47 24.65 39.89 50.55 65.48 79.2 36.77 41.14 75.02 80.22 112.02 118.02q15.8 16.12 31.22 31.98c55.68 57.33 92.24 97.54 122.25 134.46 32.7 40.24 58.84 78.5 77.7 113.71 15.96 29.8 27.8 59.31 35.22 87.74 12.32 47.32 10.06 76.26 10.03 76.55"/>
      <path fill="url(#footer_R)" d="m463.9 856.1-1.39-.14c.03-.29 2.62-29.34-11.98-76.04-8.74-27.91-23.3-58.14-42.1-87.41-22.6-35.15-53.92-73.34-93.08-113.5-45.25-46.37-99.5-93.95-146.6-134.37q-18.56-15.9-37.55-32.05c-44.32-37.72-90.14-76.73-134.4-118-10.61-9.9-20.6-19.45-30.07-28.76v-1.95a1619 1619 0 0 0 31.02 29.69C42 334.81 87.8 373.81 132.1 411.53q19 16.15 37.55 32.05c47.13 40.44 101.42 88.04 146.7 134.45 39.23 40.24 70.6 78.5 93.25 113.72 18.87 29.38 33.48 59.72 42.26 87.75 14.69 47 12.07 76.3 12.04 76.6"/>
      <path fill="url(#footer_S)" d="m423.5 856.1-1.4-.14c.04-.3 2.92-29.7-13.97-76-10.2-27.92-27.18-58.14-49.12-87.41-26.36-35.15-62.89-73.33-108.59-113.5-52.77-46.37-116.07-93.95-171.05-134.38a13814 13814 0 0 0-43.94-32.15 9832 9832 0 0 1-68.7-50.45v-1.74a9716 9716 0 0 0 69.52 51.06c14.8 10.8 29.48 21.5 43.95 32.16 55 40.44 118.33 88.05 171.14 134.45 45.77 40.23 82.37 78.49 108.79 113.7 22.01 29.38 39.07 59.74 49.31 87.77 17.01 46.65 14.08 76.34 14.05 76.63"/>
      <path fill="url(#footer_T)" d="m383.09 856.1-1.39-.15c.03-.3 3.16-30.08-15.96-75.97-8.12-19.46-24.45-50.43-56.13-87.4-14.91-17.4-32.6-35.5-52.53-53.81-20.66-18.97-44.75-39.06-71.59-59.7C125.17 532.7 52.82 485.12-9.99 444.7q-11.57-7.45-23.28-14.93v-1.65q12.08 7.72 24.04 15.41c62.83 40.44 135.22 88.04 195.58 134.45 26.87 20.66 50.98 40.77 71.68 59.77 19.98 18.34 37.69 36.49 52.64 53.93 25.17 29.38 44.65 59.73 56.36 87.78 19.28 46.26 16.1 76.36 16.06 76.66"/>
      <path fill="url(#footer_U)" d="m342.68 856.07-1.39-.08c0-.07.34-7.1-1.23-19.82-2.3-18.52-7.93-37.41-16.72-56.16-9.14-19.46-27.51-50.42-63.15-87.4-16.77-17.4-36.66-35.5-59.1-53.82-23.23-18.95-50.33-39.04-80.53-59.69-29.56-20.2-62.72-41.44-101.4-64.91a3965 3965 0 0 0-52.43-31.25v-1.62A3971 3971 0 0 1 19.89 513c38.69 23.49 71.87 44.73 101.45 64.95 30.24 20.68 57.37 40.78 80.63 59.77 22.49 18.34 42.4 36.49 59.22 53.93 35.77 37.12 54.23 68.22 63.4 87.77 8.87 18.88 14.53 37.92 16.85 56.58 1.6 12.87 1.24 20 1.24 20.07"/>
      <path fill="url(#footer_V)" d="m302.28 856.07-1.4-.08c0-.07.39-7.1-1.36-19.81-2.55-18.51-8.8-37.4-18.57-56.14-10.15-19.46-30.57-50.42-70.16-87.4-18.64-17.4-40.74-35.51-65.67-53.83-25.82-18.96-55.93-39.05-89.49-59.7a2368 2368 0 0 0-88.9-51.8v-1.59a2378 2378 0 0 1 89.63 52.2c33.59 20.67 63.73 40.78 89.58 59.77 24.98 18.34 47.11 36.49 65.8 53.92 39.74 37.12 60.25 68.22 70.45 87.78 9.84 18.88 16.13 37.92 18.71 56.6 1.78 12.86 1.4 19.79 1.38 20.08"/>
      <path fill="url(#footer_W)" d="m261.87 856.07-1.39-.09c0-.07.42-7.1-1.5-19.8-2.78-18.24-9.84-37.65-20.43-56.12-7.57-13.2-17.27-26.69-28.83-40.11-13.32-15.46-29.6-31.37-48.35-47.3-20.52-17.4-44.82-35.51-72.24-53.82-28.42-18.97-61.54-39.06-98.45-59.7-7.75-4.34-15.77-8.74-23.95-13.19v-1.59q12.66 6.87 24.63 13.55c36.94 20.67 70.1 40.77 98.54 59.76 27.47 18.35 51.82 36.5 72.37 53.93 18.82 15.97 35.14 31.93 48.5 47.44 11.63 13.5 21.38 27.06 29 40.33 10.67 18.62 17.79 38.2 20.58 56.6 1.94 12.86 1.54 19.8 1.52 20.1z"/>
      <path fill="url(#footer_X)" d="m221.47 856.08-1.4-.1c0-.07.46-7.12-1.64-19.78-2.1-12.72-7.68-32.78-22.27-56.12-8.26-13.18-18.84-26.68-31.46-40.1-14.53-15.46-32.28-31.37-52.75-47.3-22.37-17.41-48.89-35.52-78.81-53.83a1467 1467 0 0 0-66.41-38.1v-1.58a1471 1471 0 0 1 67.14 38.49c29.96 18.34 56.52 36.48 78.94 53.92 20.53 15.97 38.33 31.93 52.9 47.44 12.69 13.5 23.32 27.06 31.63 40.33 14.72 23.52 20.34 43.78 22.46 56.62 2.12 12.85 1.68 19.81 1.66 20.1"/>
      <path fill="url(#footer_Y)" d="m181.06 856.08-1.38-.1c0-.07.48-7.13-1.78-19.78-2.28-12.71-8.31-32.76-24.13-56.1-8.94-13.19-20.4-26.68-34.07-40.1-15.74-15.46-34.98-31.38-57.15-47.3-24.24-17.41-52.97-35.52-85.39-53.84q-5.12-2.88-10.42-5.81v-1.6c3.75 2.08 7.48 4.15 11.1 6.2 32.47 18.34 61.24 36.48 85.52 53.91 22.23 15.97 41.52 31.93 57.31 47.44 13.74 13.49 25.26 27.06 34.25 40.33 15.95 23.53 22.04 43.79 24.35 56.63 2.3 12.84 1.81 19.83 1.8 20.12"/>
      <path fill="url(#footer_Z)" d="m140.66 856.08-1.4-.1c.01-.08.53-7.15-1.9-19.77-2.46-12.7-8.96-32.75-25.98-56.08-9.63-13.2-21.98-26.69-36.7-40.12-16.95-15.45-37.66-31.37-61.55-47.3a882 882 0 0 0-46.4-28.72v-1.61a886 886 0 0 1 47.17 29.17c23.95 15.97 44.72 31.93 61.72 47.43 14.8 13.49 27.2 27.06 36.89 40.32 17.18 23.54 23.74 43.8 26.22 56.64 2.47 12.83 1.96 19.84 1.93 20.14"/>
      <path fill="url(#footer_aa)" d="m100.25 856.09-1.39-.12c0-.07.55-7.15-2.05-19.75-2.63-12.7-9.59-32.75-27.83-56.07-10.32-13.2-23.54-26.69-39.32-40.12-17.43-14.83-38.61-30.1-62.92-45.4V693c24.68 15.48 46.16 30.94 63.83 45.98 15.84 13.48 29.14 27.05 39.51 40.31 18.4 23.54 25.44 43.8 28.1 56.66 2.65 12.81 2.1 19.85 2.07 20.15"/>
      <path fill="url(#footer_ab)" d="m59.85 856.1-1.4-.13c.01-.07.6-7.18-2.18-19.74-2.3-10.4-9.2-31.52-29.68-56.07-11.01-13.2-25.12-26.7-41.95-40.12-5.6-4.47-11.6-8.98-17.9-13.51v-1.72a454 454 0 0 1 18.78 14.14C2.42 752.44 16.6 766 27.66 779.26c20.67 24.78 27.65 46.14 29.98 56.67 2.82 12.8 2.24 19.86 2.21 20.16"/>
      <path fill="url(#footer_ac)" d="m19.44 856.1-1.39-.14c0-.07.61-7.19-2.32-19.72-2.44-10.4-9.78-31.51-31.54-56.07a247 247 0 0 0-17.46-17.66v-1.9a251 251 0 0 1 18.51 18.64c21.96 24.79 29.38 46.15 31.85 56.67 3 12.8 2.38 19.88 2.35 20.17"/>
    </g>
  </g>
  <defs>
    <linearGradient id="footer_b" x1="755.23" x2="755.23" y1="-871.41" y2="2137.74" gradientUnits="userSpaceOnUse">
      <stop offset=".34" stop-color="#fff"/>
      <stop offset="1"/>
    </linearGradient>
    <linearGradient id="footer_c" x1="755.23" x2="755.23" y1="-871.37" y2="2137.65" gradientUnits="userSpaceOnUse">
      <stop offset=".34" stop-color="#fff"/>
      <stop offset="1"/>
    </linearGradient>
    <linearGradient id="footer_d" x1="755.23" x2="755.23" y1="-871.41" y2="2137.74" gradientUnits="userSpaceOnUse">
      <stop offset=".34" stop-color="#fff"/>
      <stop offset="1"/>
    </linearGradient>
    <linearGradient id="footer_e" x1="755.23" x2="755.23" y1="-871.64" y2="2138.18" gradientUnits="userSpaceOnUse">
      <stop offset=".34" stop-color="#fff"/>
      <stop offset="1"/>
    </linearGradient>
    <linearGradient id="footer_f" x1="755.23" x2="755.23" y1="-871.4" y2="2137.73" gradientUnits="userSpaceOnUse">
      <stop offset=".34" stop-color="#fff"/>
      <stop offset="1"/>
    </linearGradient>
    <linearGradient id="footer_g" x1="755.23" x2="755.23" y1="-871.45" y2="2137.82" gradientUnits="userSpaceOnUse">
      <stop offset=".34" stop-color="#fff"/>
      <stop offset="1"/>
    </linearGradient>
    <linearGradient id="footer_h" x1="755.23" x2="755.23" y1="-871.4" y2="2137.73" gradientUnits="userSpaceOnUse">
      <stop offset=".34" stop-color="#fff"/>
      <stop offset="1"/>
    </linearGradient>
    <linearGradient id="footer_i" x1="755.23" x2="755.23" y1="-871.38" y2="2137.71" gradientUnits="userSpaceOnUse">
      <stop offset=".34" stop-color="#fff"/>
      <stop offset="1"/>
    </linearGradient>
    <linearGradient id="footer_j" x1="755.23" x2="755.23" y1="-871.39" y2="2137.72" gradientUnits="userSpaceOnUse">
      <stop offset=".34" stop-color="#fff"/>
      <stop offset="1"/>
    </linearGradient>
    <linearGradient id="footer_k" x1="755.23" x2="755.23" y1="-871.44" y2="2137.78" gradientUnits="userSpaceOnUse">
      <stop offset=".34" stop-color="#fff"/>
      <stop offset="1"/>
    </linearGradient>
    <linearGradient id="footer_l" x1="755.23" x2="755.23" y1="-871.42" y2="2137.77" gradientUnits="userSpaceOnUse">
      <stop offset=".34" stop-color="#fff"/>
      <stop offset="1"/>
    </linearGradient>
    <linearGradient id="footer_m" x1="755.23" x2="755.23" y1="-871.43" y2="2137.77" gradientUnits="userSpaceOnUse">
      <stop offset=".34" stop-color="#fff"/>
      <stop offset="1"/>
    </linearGradient>
    <linearGradient id="footer_n" x1="755.23" x2="755.23" y1="-871.43" y2="2137.77" gradientUnits="userSpaceOnUse">
      <stop offset=".34" stop-color="#fff"/>
      <stop offset="1"/>
    </linearGradient>
    <linearGradient id="footer_o" x1="755.23" x2="755.23" y1="-871.43" y2="2137.77" gradientUnits="userSpaceOnUse">
      <stop offset=".34" stop-color="#fff"/>
      <stop offset="1"/>
    </linearGradient>
    <linearGradient id="footer_p" x1="755.23" x2="755.23" y1="-871.72" y2="2138.05" gradientUnits="userSpaceOnUse">
      <stop offset=".34" stop-color="#fff"/>
      <stop offset="1"/>
    </linearGradient>
    <linearGradient id="footer_q" x1="755.23" x2="755.23" y1="-871.37" y2="2137.72" gradientUnits="userSpaceOnUse">
      <stop offset=".34" stop-color="#fff"/>
      <stop offset="1"/>
    </linearGradient>
    <linearGradient id="footer_r" x1="755.23" x2="755.23" y1="-871.37" y2="2137.72" gradientUnits="userSpaceOnUse">
      <stop offset=".34" stop-color="#fff"/>
      <stop offset="1"/>
    </linearGradient>
    <linearGradient id="footer_s" x1="755.23" x2="755.23" y1="-871.37" y2="2137.72" gradientUnits="userSpaceOnUse">
      <stop offset=".34" stop-color="#fff"/>
      <stop offset="1"/>
    </linearGradient>
    <linearGradient id="footer_t" x1="1487.95" x2="1487.95" y1="-871.41" y2="2137.77" gradientUnits="userSpaceOnUse">
      <stop offset=".34" stop-color="#fff"/>
      <stop offset="1"/>
    </linearGradient>
    <linearGradient id="footer_u" x1="1467.75" x2="1467.75" y1="-871.42" y2="2137.76" gradientUnits="userSpaceOnUse">
      <stop offset=".34" stop-color="#fff"/>
      <stop offset="1"/>
    </linearGradient>
    <linearGradient id="footer_v" x1="1447.55" x2="1447.55" y1="-871.42" y2="2137.77" gradientUnits="userSpaceOnUse">
      <stop offset=".34" stop-color="#fff"/>
      <stop offset="1"/>
    </linearGradient>
    <linearGradient id="footer_w" x1="1427.35" x2="1427.35" y1="-871.42" y2="2137.75" gradientUnits="userSpaceOnUse">
      <stop offset=".34" stop-color="#fff"/>
      <stop offset="1"/>
    </linearGradient>
    <linearGradient id="footer_x" x1="1407.15" x2="1407.15" y1="-871.42" y2="2137.75" gradientUnits="userSpaceOnUse">
      <stop offset=".34" stop-color="#fff"/>
      <stop offset="1"/>
    </linearGradient>
    <linearGradient id="footer_y" x1="1386.95" x2="1386.95" y1="-871.42" y2="2137.76" gradientUnits="userSpaceOnUse">
      <stop offset=".34" stop-color="#fff"/>
      <stop offset="1"/>
    </linearGradient>
    <linearGradient id="footer_z" x1="1366.74" x2="1366.74" y1="-871.42" y2="2137.76" gradientUnits="userSpaceOnUse">
      <stop offset=".34" stop-color="#fff"/>
      <stop offset="1"/>
    </linearGradient>
    <linearGradient id="footer_A" x1="1346.54" x2="1346.54" y1="-871.42" y2="2137.76" gradientUnits="userSpaceOnUse">
      <stop offset=".34" stop-color="#fff"/>
      <stop offset="1"/>
    </linearGradient>
    <linearGradient id="footer_B" x1="1326.35" x2="1326.35" y1="-871.42" y2="2137.76" gradientUnits="userSpaceOnUse">
      <stop offset=".34" stop-color="#fff"/>
      <stop offset="1"/>
    </linearGradient>
    <linearGradient id="footer_C" x1="1306.15" x2="1306.15" y1="-871.16" y2="2138.02" gradientUnits="userSpaceOnUse">
      <stop offset=".34" stop-color="#fff"/>
      <stop offset="1"/>
    </linearGradient>
    <linearGradient id="footer_D" x1="1285.85" x2="1285.85" y1="-871.42" y2="2137.76" gradientUnits="userSpaceOnUse">
      <stop offset=".34" stop-color="#fff"/>
      <stop offset="1"/>
    </linearGradient>
    <linearGradient id="footer_E" x1="1265.65" x2="1265.65" y1="-871.42" y2="2137.76" gradientUnits="userSpaceOnUse">
      <stop offset=".34" stop-color="#fff"/>
      <stop offset="1"/>
    </linearGradient>
    <linearGradient id="footer_F" x1="1245.46" x2="1245.46" y1="-871.42" y2="2137.76" gradientUnits="userSpaceOnUse">
      <stop offset=".34" stop-color="#fff"/>
      <stop offset="1"/>
    </linearGradient>
    <linearGradient id="footer_G" x1="1183.85" x2="1183.85" y1="-871.42" y2="2137.76" gradientUnits="userSpaceOnUse">
      <stop offset=".34" stop-color="#fff"/>
      <stop offset="1"/>
    </linearGradient>
    <linearGradient id="footer_H" x1="1088.2" x2="1088.2" y1="-871.42" y2="2137.76" gradientUnits="userSpaceOnUse">
      <stop offset=".34" stop-color="#fff"/>
      <stop offset="1"/>
    </linearGradient>
    <linearGradient id="footer_I" x1="992.56" x2="992.56" y1="-871.42" y2="2137.76" gradientUnits="userSpaceOnUse">
      <stop offset=".34" stop-color="#fff"/>
      <stop offset="1"/>
    </linearGradient>
    <linearGradient id="footer_J" x1="896.9" x2="896.9" y1="-871.42" y2="2137.76" gradientUnits="userSpaceOnUse">
      <stop offset=".34" stop-color="#fff"/>
      <stop offset="1"/>
    </linearGradient>
    <linearGradient id="footer_K" x1="801.27" x2="801.27" y1="-871.42" y2="2137.76" gradientUnits="userSpaceOnUse">
      <stop offset=".34" stop-color="#fff"/>
      <stop offset="1"/>
    </linearGradient>
    <linearGradient id="footer_L" x1="705.64" x2="705.64" y1="-871.42" y2="2137.76" gradientUnits="userSpaceOnUse">
      <stop offset=".34" stop-color="#fff"/>
      <stop offset="1"/>
    </linearGradient>
    <linearGradient id="footer_M" x1="610.01" x2="610.01" y1="-871.42" y2="2137.76" gradientUnits="userSpaceOnUse">
      <stop offset=".34" stop-color="#fff"/>
      <stop offset="1"/>
    </linearGradient>
    <linearGradient id="footer_N" x1="514.37" x2="514.37" y1="-871.42" y2="2137.76" gradientUnits="userSpaceOnUse">
      <stop offset=".34" stop-color="#fff"/>
      <stop offset="1"/>
    </linearGradient>
    <linearGradient id="footer_O" x1="418.72" x2="418.72" y1="-871.42" y2="2137.76" gradientUnits="userSpaceOnUse">
      <stop offset=".34" stop-color="#fff"/>
      <stop offset="1"/>
    </linearGradient>
    <linearGradient id="footer_P" x1="323.08" x2="323.08" y1="-871.42" y2="2137.76" gradientUnits="userSpaceOnUse">
      <stop offset=".34" stop-color="#fff"/>
      <stop offset="1"/>
    </linearGradient>
    <linearGradient id="footer_Q" x1="235.61" x2="235.61" y1="-871.42" y2="2137.76" gradientUnits="userSpaceOnUse">
      <stop offset=".34" stop-color="#fff"/>
      <stop offset="1"/>
    </linearGradient>
    <linearGradient id="footer_R" x1="215.41" x2="215.41" y1="-871.42" y2="2137.76" gradientUnits="userSpaceOnUse">
      <stop offset=".34" stop-color="#fff"/>
      <stop offset="1"/>
    </linearGradient>
    <linearGradient id="footer_S" x1="195.22" x2="195.22" y1="-871.42" y2="2137.76" gradientUnits="userSpaceOnUse">
      <stop offset=".34" stop-color="#fff"/>
      <stop offset="1"/>
    </linearGradient>
    <linearGradient id="footer_T" x1="175.02" x2="175.02" y1="-871.42" y2="2137.76" gradientUnits="userSpaceOnUse">
      <stop offset=".34" stop-color="#fff"/>
      <stop offset="1"/>
    </linearGradient>
    <linearGradient id="footer_U" x1="154.73" x2="154.73" y1="-871.42" y2="2137.76" gradientUnits="userSpaceOnUse">
      <stop offset=".34" stop-color="#fff"/>
      <stop offset="1"/>
    </linearGradient>
    <linearGradient id="footer_V" x1="134.53" x2="134.53" y1="-871.42" y2="2137.76" gradientUnits="userSpaceOnUse">
      <stop offset=".34" stop-color="#fff"/>
      <stop offset="1"/>
    </linearGradient>
    <linearGradient id="footer_W" x1="114.33" x2="114.33" y1="-871.42" y2="2137.75" gradientUnits="userSpaceOnUse">
      <stop offset=".34" stop-color="#fff"/>
      <stop offset="1"/>
    </linearGradient>
    <linearGradient id="footer_X" x1="94.12" x2="94.12" y1="-871.42" y2="2137.77" gradientUnits="userSpaceOnUse">
      <stop offset=".34" stop-color="#fff"/>
      <stop offset="1"/>
    </linearGradient>
    <linearGradient id="footer_Y" x1="73.93" x2="73.93" y1="-871.42" y2="2137.77" gradientUnits="userSpaceOnUse">
      <stop offset=".34" stop-color="#fff"/>
      <stop offset="1"/>
    </linearGradient>
    <linearGradient id="footer_Z" x1="53.72" x2="53.72" y1="-871.42" y2="2137.75" gradientUnits="userSpaceOnUse">
      <stop offset=".34" stop-color="#fff"/>
      <stop offset="1"/>
    </linearGradient>
    <linearGradient id="footer_aa" x1="33.52" x2="33.52" y1="-871.42" y2="2137.76" gradientUnits="userSpaceOnUse">
      <stop offset=".34" stop-color="#fff"/>
      <stop offset="1"/>
    </linearGradient>
    <linearGradient id="footer_ab" x1="13.32" x2="13.32" y1="-871.41" y2="2137.76" gradientUnits="userSpaceOnUse">
      <stop offset=".34" stop-color="#fff"/>
      <stop offset="1"/>
    </linearGradient>
    <linearGradient id="footer_ac" x1="-6.88" x2="-6.88" y1="-871.42" y2="2137.75" gradientUnits="userSpaceOnUse">
      <stop offset=".34" stop-color="#fff"/>
      <stop offset="1"/>
    </linearGradient>
  </defs>
</svg>