<svg xmlns="http://www.w3.org/2000/svg" width="62" height="62" fill="none" viewBox="0 0 62 62">
  <rect width="62" height="62" fill="#fcfcfc" rx="31"/>
  <path fill="#51bcef" d="M48.97 42c0 .53-.19 1.04-.53 1.41-.33.38-.8.59-1.27.59h-32.3q-.37.02-.72-.12-.35-.15-.62-.43a2.19 2.19 0 0 1 0-2.9q.28-.28.62-.43.35-.14.72-.12h32.32c.48 0 .93.22 1.26.6.34.37.52.87.52 1.4M39.97 48c0 .53-.19 1.04-.53 1.41-.34.38-.8.59-1.27.59h-14.3q-.37.02-.72-.12a2 2 0 0 1-.61-.43 2.18 2.18 0 0 1 0-2.9q.26-.28.61-.43t.72-.12h14.3c.48 0 .94.21 1.27.59.34.37.53.88.53 1.41M32.8 28.3q-.24.46-.67.75a1.7 1.7 0 0 1-1.7.07l-9.92-5.28V38h-3.54V21.59q0-.6.16-1.16.12-.32.3-.61.38-.58 1.02-.76c.41-.11.85-.06 1.23.14l2.76 1.45L32 25.76q.65.36.89 1.1c.15.47.12.98-.09 1.43"/>
  <path fill="#0a60dd" d="M44.6 20.52v-.04q-.02-.05-.06-.11l-.12-.2q-.51-.79-1.35-1.22l-11.27-5.7a2.3 2.3 0 0 0-2.1 0l-11.24 5.7q-.96.48-1.49 1.43a1.76 1.76 0 0 1 2.29-.59l2.81 1.4 8.7-4.4 8.46 4.31-9.24 4.64q-.47.23-.75.68-.27.45-.28.98V38h3.58v-9.28q0-.08.04-.14a.3.3 0 0 1 .1-.1l8.7-4.37V38h3.6V22.1q0-.84-.38-1.58"/>
</svg>