<svg xmlns="http://www.w3.org/2000/svg" width="62" height="62" fill="none" viewBox="0 0 62 62">
  <rect width="62" height="62" fill="#0303e7" rx="31"/>
  <g fill="#fff" clip-path="url(#cardano_node_clip)">
    <path d="M21.51 31.36a2.84 2.84 0 0 0 2.67 3h.17a2.8 2.8 0 0 0 2.82-2.85 2.83 2.83 0 0 0-5.66-.15M10.96 30.63a.9.9 0 0 0-.96.86c-.02.51.36.95.86.97.5.04.93-.36.97-.86a.9.9 0 0 0-.87-.97M21.33 14.86a.93.93 0 0 0 .4-1.24.9.9 0 0 0-1.22-.4.9.9 0 0 0-.4 1.22.9.9 0 0 0 1.22.42M24.2 19.89c.7-.35.98-1.2.63-1.9a1.41 1.41 0 1 0-2.52 1.27c.35.7 1.2.98 1.9.63M14.55 23.35a1.17 1.17 0 1 0 1.27-1.96 1.17 1.17 0 0 0-1.27 1.96M16.26 30.12a1.4 1.4 0 0 0-1.49 1.34 1.41 1.41 0 1 0 2.82.16 1.4 1.4 0 0 0-1.33-1.5M14.7 39.65c-.57.3-.8 1-.51 1.58a1.17 1.17 0 1 0 2.08-1.06c-.29-.57-1-.8-1.57-.52M20.2 27.18c.77.51 1.8.3 2.29-.48a1.66 1.66 0 1 0-2.3.48M37.6 19.78a1.42 1.42 0 1 0 1.56-2.37 1.42 1.42 0 0 0-1.55 2.37M40.5 14.77a.9.9 0 0 0 1.26-.27c.28-.43.16-1-.27-1.27a.9.9 0 0 0-1.26.26.95.95 0 0 0 .27 1.28M37.82 28.65a2.83 2.83 0 0 0-2.98 2.68 2.83 2.83 0 0 0 2.67 2.99h.15a2.83 2.83 0 0 0 2.83-2.85 2.8 2.8 0 0 0-2.67-2.82M25.13 26.98a2.83 2.83 0 1 0 5.05-2.57 2.8 2.8 0 0 0-3.8-1.26 2.86 2.86 0 0 0-1.25 3.83M47.3 23.35c.57-.3.8-1 .5-1.58-.3-.57-1-.8-1.57-.5-.57.29-.8.98-.51 1.56.3.57 1 .8 1.58.52M40.13 24.25a1.67 1.67 0 0 0-.74 2.24 1.66 1.66 0 0 0 2.23.74 1.67 1.67 0 0 0-1.49-2.98M30.89 14.34c.64.03 1.19-.46 1.23-1.1s-.46-1.2-1.1-1.24a1.17 1.17 0 0 0-1.23 1.1c-.03.64.46 1.2 1.1 1.24M30.88 21.7c.92.05 1.7-.66 1.74-1.59a1.65 1.65 0 0 0-1.56-1.75c-.92-.06-1.7.65-1.75 1.57-.05.93.65 1.72 1.57 1.76M21.87 38.75a1.67 1.67 0 0 0 .74-2.24 1.66 1.66 0 0 0-2.23-.74 1.67 1.67 0 0 0-.74 2.24 1.66 1.66 0 0 0 2.23.74M31.95 24.13a2.84 2.84 0 0 0 .82 3.93c1.31.86 3.06.5 3.9-.82a2.84 2.84 0 0 0-2.35-4.39c-.96 0-1.84.48-2.37 1.28M36.87 36.02a2.8 2.8 0 0 0-3.8-1.26 2.84 2.84 0 0 0 2.54 5.07 2.83 2.83 0 0 0 1.27-3.79zM41.8 35.82c-.76-.51-1.8-.3-2.29.48a1.66 1.66 0 1 0 2.3-.48M47.23 31.55a1.41 1.41 0 1 0-2.82-.16 1.41 1.41 0 1 0 2.82.16M51.14 30.54a.9.9 0 0 0-.97.86c-.02.51.36.95.87.97.5.04.93-.36.96-.86a.9.9 0 0 0-.86-.97M47.45 39.65a1.17 1.17 0 1 0-1.27 1.96 1.17 1.17 0 0 0 1.27-1.96M21.5 48.23a.9.9 0 0 0-1.27.26.91.91 0 1 0 1.52 1.01.9.9 0 0 0-.26-1.27M40.67 48.14a.93.93 0 0 0-.4 1.24c.22.45.78.63 1.22.4a.9.9 0 0 0 .4-1.22.9.9 0 0 0-1.22-.42M30.05 38.87c.85-1.32.5-3.08-.82-3.94a2.85 2.85 0 1 0-1.56 5.22c.97.01 1.85-.47 2.38-1.28M24.4 43.22a1.42 1.42 0 1 0-1.56 2.37 1.42 1.42 0 0 0 1.55-2.37M30.99 48.66a1.2 1.2 0 0 0-1.23 1.1c-.05.64.46 1.2 1.1 1.24.63.03 1.18-.45 1.23-1.1.03-.65-.46-1.2-1.1-1.24M31 41.3c-.92-.05-1.7.66-1.75 1.58a1.66 1.66 0 1 0 3.32.18A1.66 1.66 0 0 0 31 41.31M37.8 43.1c-.7.37-.98 1.23-.62 1.92.36.7 1.21.98 1.9.62a1.42 1.42 0 0 0-1.28-2.53"/>
  </g>
  <defs>
    <clipPath id="cardano_node_clip">
      <path fill="#fff" d="M10 12h42v39H10z"/>
    </clipPath>
  </defs>
</svg>