<svg xmlns="http://www.w3.org/2000/svg" width="62" height="62" fill="none" viewBox="0 0 62 62">
  <rect width="62" height="62" fill="#191919" rx="31"/>
  <path fill="url(#dolos_lg)" d="M49.9 43.62 46.48 47l-3.37-3.38 3.37-3.4zM30.86 17.87q3.38 0 6.17 1.04a13.5 13.5 0 0 1 7.87 7.61 15.5 15.5 0 0 1 1.08 5.91q0 3.27-1.13 5.96a14 14 0 0 1-3.08 4.6 13 13 0 0 1-4.74 2.96Q34.24 47 30.86 47H20.12V27.44q2.2 1 5.22 1.27v13.5h5.47q2.25 0 4.09-.7a9 9 0 0 0 3.13-1.95 9 9 0 0 0 2-3.08q.74-1.83.74-4.05 0-2.2-.74-4l-.03-.07c-1.3-3.4-5.25-8.82-13.76-10.49zm-.22 12.44c.05 2.56 1.28 6.64 7.86 4.44-1.35 1-4.39 2.22-7.05 1.26-1.32-.48-3.97-1.73-3.98-6.12zM11.97 12c3.3 5.59 10.44 8.01 13.61 8.52 9.73 1.86 13.57 8.6 14.27 11.73-1.5-3.77-8.97-5.61-12.52-6.06-12.2.13-15.32-9.4-15.36-14.19"/>
  <defs>
    <linearGradient id="dolos_lg" x1="49.89" x2="15.5" y1="42.91" y2="17.69" gradientUnits="userSpaceOnUse">
      <stop stop-color="#9ed6fd"/>
      <stop offset=".5" stop-color="#40aefa"/>
      <stop offset="1" stop-color="#075c97"/>
    </linearGradient>
  </defs>
</svg>