<svg xmlns="http://www.w3.org/2000/svg" width="62" height="62" fill="none" viewBox="0 0 62 62">
  <path fill="#27272a" d="M30.6 62a31 31 0 0 1-16.41-5.58l-1.5-1.2c4.94 1.7 10.13 2.87 15.4 2.36 13.3-1.3 23.95-12.08 21.49-25.96-2.43-13.69-16.75-18.43-29-18.86-.11 0-.23-.07-.35-.06l-4.75.05-2.94-6.46L26.39 0h22.18l-3.63 3.8c4 1.6 7.4 4.14 10.1 7.48A31.7 31.7 0 0 1 62 30.06v1.87l-.25 3.05c-1.68 13.67-12.49 24.98-26.23 26.76l-2.8.25c-.7-.02-1.42.03-2.12 0M29.15 3.68h-5.5l2.74 2.78z"/>
  <path fill="#27272a" d="M40.2 25.24c2.6 2.6 4.8 6.3 4.86 10.08-3.82-4.46-9-7.44-14.86-8.28-8.58-1.21-17.03 1.74-24.62 5.38L0 28.15l5.28-9.03c11.16-1.9 26.28-2.51 34.92 6.12M8.7 23.4l-4.54 1.1 2.8 1.68z"/>
  <path fill="#27272a" d="m44.33 43.85-1.88-1.3c-11.48-7.5-25.25.01-33.67 8.54l-5.95-2.68 1.47-9.17.1-.2c4.6-2.7 9.59-5.06 14.83-6.23 6.48-1.46 13.33-1.08 18.9 2.82 2.78 1.96 5.26 4.9 6.2 8.22m-36.3.9.73-3.26-4 2.57z"/>
</svg>