<svg xmlns="http://www.w3.org/2000/svg" width="62" height="62" fill="none" viewBox="0 0 62 62">
  <g clip-path="url(#qh_gray_a)">
    <rect width="62" height="62" fill="#fcfcfc" rx="31"/>
    <g clip-path="url(#qh_gray_b)">
      <g filter="url(#qh_gray_c)">
        <path fill="#fff" d="m49.4 29.9-3.42-4.45.8-8.03-5.24-7.83H37.2l-2.31 4.37-.37 3.27H27.4l-.37-3.27-2.3-4.37h-4.35l-5.23 7.83.8 8.03-3.43 4.45-.37 6.83 8.05 9.46L28.46 50h5l8.26-3.82 8.05-9.46zm-11.49 2.58-.35.26z"/>
      </g>
      <path fill="#4d4d4d" d="m38.46 25.65 2.86 4.37-3.74 2.71 6.14.4v3.88l-9.81 11.74-2.12 1.26h1.68l8.27-3.82 8.05-9.46-.37-6.83L46 25.45l.8-8.03-5.24-7.83h-4.34l-2.32 4.37-.36 3.27h-3.57v11.61h.95l1.69-6.98zM28.34 21.86l1.68 6.99h.95V17.23H27.4l-.36-3.27-2.3-4.37h-4.35l-5.23 7.83.8 8.03-3.43 4.45-.37 6.83 8.05 9.46L28.48 50h1.69l-2.12-1.26-9.82-11.74v-3.87l6.14-.4-3.74-2.72 2.86-4.37z"/>
      <path fill="#3d3d3d" d="m12.53 29.9-.37 6.83 8.05 9.46L28.48 50h1.69l-2.12-1.26-9.82-11.74v-3.87l6.14-.4zM49.42 29.9l.36 6.83-8.04 9.46L33.47 50h-1.69l2.12-1.26 9.82-11.74v-3.87l-6.14-.4z"/>
      <path fill="#2a2a2a" d="m49.78 36.73-8.04 9.46L33.47 50h-1.69l2.12-1.26 9.82-11.74zM12.16 36.73l8.05 9.46L28.48 50h1.69l-2.12-1.26-9.82-11.74z"/>
      <path fill="#1e1e1e" d="M24.55 18.84v-5.6l-1.89-2.1-1.38.23-3.7 5.85.63 6.48zM37.4 18.84v-5.6l1.89-2.1 1.38.23 3.7 5.85-.63 6.48z"/>
      <path fill="#bbb" d="M30.97 28.85h-.95l-3.04-4.42-3.5 1.22-2.85 4.37 3.74 2.71-4.7 1.76 8.38 14.26 2.12 1.26h.8zM30.97 28.85h.95l3.05-4.42 3.5 1.22 2.85 4.37-3.74 2.71 4.7 1.76-8.38 14.26-2.12 1.26h-.8z"/>
      <path fill="#bbb" d="m28.82 33.04-4.45-.3-4.7 1.75 8.25-.04zM33.13 33.04l4.45-.3 4.7 1.75-8.25-.04z"/>
      <path fill="#6a6a6a" d="m24.37 32.73-4.7 1.76 8.38 14.26-9.82-11.74v-3.87zM37.58 32.73l4.7 1.76-8.38 14.26 9.82-11.74v-3.87zM23.49 25.65l4.85-3.79 1.68 6.99-3.04-4.42zM38.46 25.65l-4.85-3.79-1.69 6.99 3.05-4.42z"/>
      <path fill="#2a2a2a" d="M30.97 37.45V32.9l-2.15.14-.9 1.41.45 2.5z"/>
      <path fill="#1e1e1e" d="m33.57 36.95.46-2.5-.9-1.41-2.16-.14v4.55z"/>
      <path fill="#2a2a2a" d="m28.82 33.04 2.15-.14 2.16.14-.38.93h-3.39z"/>
      <path fill="#5b5b5b" d="m32.6 40.25.45.89.63 1.26-.32.68-.67 1.14-1.72.23-1.71-.23-.67-1.14-.33-.69.64-1.25.44-.89 1.63-.11z"/>
      <path fill="#767676" d="m33.68 42.4-2.26-.97-2.79.23.71-1.4 1.63-.12 1.63.11z"/>
      <path fill="#1e1e1e" d="m32.6 40.25.45.89.63 1.25-.32.69-.67 1.14-1.72.23-1.71-.23-.67-1.14-.33-.69.64-1.25.44-.89 1.63-.11zm5.27-1.32-2.07-.56-.94 1.87-1-2-2.89-.11-2.88.11-1 2-.93-1.86-2.09.55 2.73 5.08 1.3 2.22 2.87.23 2.88-.23 1.3-2.22z"/>
      <path fill="#fff" d="m26.52 32.43-1.73-1v-3.57l1.73-1 1.74 1v3.63zM35.44 32.43l-1.74-1v-3.57l1.74-1 1.74 1v3.63z"/>
      <path fill="#bbb" d="m31.81 20.77-.01 1.58-.34.37h-.95l-.34-.37v-1.58l.35-.37h.95zm-.98.16-.07.08v1.1l.07.08h.31l.07-.07v-1.1l-.07-.09z"/>
      <mask id="qh_gray_d" width="60" height="8" x="1" y="55" maskUnits="userSpaceOnUse" style="mask-type:luminance">
        <path fill="#fff" d="M60.18 56H1.77v6.99h58.41z"/>
      </mask>
      <g fill="#fff" mask="url(#qh_gray_d)">
        <path d="M46.85 62.1V63h-.5v-.9l-1.76-1.15h.89l1.14.74 1.12-.74h.9zM37.82 62.1v.88h-.52v-2.04h.52v.88l2.04-.88h1.26l-2.37 1.02 2.37 1.02h-1.26zM32.92 62.7l-.3.28h-3.56l.34-.48h3.03v-.3H29.4l-.3-.29v-.67l.3-.3h3.56l-.37.49h-3v.33h3.01l.31.29zM20.84 62.99l-.3-.3v-1.45l.3-.3h3.21l.3.3v1.45l-.3.3zm.2-.49h2.81v-1.07h-2.82zM12.18 62.99v-2.05h.5v.78h2.82v-.78h.5V63h-.5v-.79h-2.82V63zM59.29 59.65v-2.79h-3.05v2.79h-.9v-2.79H52.3v2.79h-.9V56h8.23l.54.52v3.13zM17.47 56v3.65H11.2l-.55-.53V56h.9v2.78h5.04V56zM38.15 56.86H35.3q-.08 0-.08-.06l-.02-.2v-.25l.01-.35h6.8v.86h-2.98v2.79h-.88zM27.3 59.65V56h.84l5.1 2.59V56h.9v3.65h-.84l-5.1-2.58v2.58zM18.98 59.65v-3.13l.54-.52h5.74l.54.53v3.12h-.88v-1.07h-5.05v1.07zm.9-1.94h5.04v-.85h-5.05zM49.9 56v3.65h-6.28l-.54-.53V56h.9v2.78h5.04V56zM8.38 59.65h.35l.54-.53v-2.59L8.73 56H2.3l-.54.52v2.6l.54.53h4.66l.8.54h1.38zm-5.72-.87v-1.9h5.72v1.9z"/>
      </g>
    </g>
  </g>
  <rect width="61" height="61" x=".5" y=".5" stroke="#e4e4e7" rx="30.5"/>
  <defs>
    <clipPath id="qh_gray_a">
      <rect width="62" height="62" fill="#fff" rx="31"/>
    </clipPath>
    <clipPath id="qh_gray_b">
      <path fill="#fff" d="M-12.03-11h86v85h-86z"/>
    </clipPath>
    <filter id="qh_gray_c" width="437.62" height="440.42" x="-187.85" y="-190.41" color-interpolation-filters="sRGB" filterUnits="userSpaceOnUse">
      <feFlood flood-opacity="0" result="BackgroundImageFix"/>
      <feColorMatrix in="SourceAlpha" result="hardAlpha" values="0 0 0 0 0 0 0 0 0 0 0 0 0 0 0 0 0 0 127 0"/>
      <feOffset/>
      <feGaussianBlur stdDeviation="100"/>
      <feComposite in2="hardAlpha" operator="out"/>
      <feColorMatrix values="0 0 0 0 1 0 0 0 0 1 0 0 0 0 1 0 0 0 0.75 0"/>
      <feBlend in2="BackgroundImageFix" result="effect1_dropShadow_621_16343"/>
      <feBlend in="SourceGraphic" in2="effect1_dropShadow_621_16343" result="shape"/>
      <feColorMatrix in="SourceAlpha" result="hardAlpha" values="0 0 0 0 0 0 0 0 0 0 0 0 0 0 0 0 0 0 127 0"/>
      <feOffset/>
      <feGaussianBlur stdDeviation="50"/>
      <feComposite in2="hardAlpha" k2="-1" k3="1" operator="arithmetic"/>
      <feColorMatrix values="0 0 0 0 1 0 0 0 0 1 0 0 0 0 1 0 0 0 1 0"/>
      <feBlend in2="shape" result="effect2_innerShadow_621_16343"/>
    </filter>
  </defs>
</svg>