<svg width="34" height="39" viewBox="0 0 34 39" fill="none" xmlns="http://www.w3.org/2000/svg">
<path d="M16.7412 34.141L16.7412 30.4501" stroke="url(#logo_p1)" stroke-width="1.31818"/>
<path d="M3.95459 26.3644L6.06368 25.3098" stroke="url(#logo_p2)" stroke-width="1.31818"/>
<path d="M3.82275 11.5999L6.59093 13.5771" stroke="url(#logo_p3)" stroke-width="1.31818"/>
<path d="M16.6094 3.95447V7.51355" stroke="url(#logo_p4)" stroke-width="1.31818"/>
<path d="M26.3638 12.5228L29.2638 11.2046" stroke="url(#logo_p5)" stroke-width="1.31818"/>
<path d="M29.7907 26.4964L27.1543 25.0464" stroke="url(#logo_p6)" stroke-width="1.31818"/>
<path d="M27.8134 12.9187V15.4232L16.8725 9.09597L8.17255 14.1051V17.796L19.2453 24.5187L16.8725 25.8369L5.93164 19.5096V12.9187L16.8725 6.59143L27.8134 12.9187Z" fill="url(#logo_p7)"/>
<path d="M25.3093 20.4313L14.3684 13.9722L16.873 12.2585L27.6821 18.8494V25.4403L16.873 31.7676L5.53662 25.4403V22.4085L16.873 29.1313L25.3093 24.254V20.4313Z" fill="url(#logo_p8)"/>
<circle cx="30.9772" cy="10.4133" r="1.58182" stroke="url(#logo_p9)" stroke-width="1.31818"/>
<circle cx="16.7409" cy="2.24091" r="1.58182" stroke="url(#logo_p10)" stroke-width="1.31818"/>
<circle cx="16.7409" cy="35.9866" r="1.58182" stroke="url(#logo_p11)" stroke-width="1.31818"/>
<circle cx="31.1086" cy="27.419" r="1.58182" stroke="url(#logo_p12)" stroke-width="1.31818"/>
<circle cx="2.24091" cy="10.6768" r="1.58182" stroke="url(#logo_p13)" stroke-width="1.31818"/>
<circle cx="2.24091" cy="27.5507" r="1.58182" stroke="url(#logo_p14)" stroke-width="1.31818"/>
<defs>
<linearGradient id="logo_p1" x1="17.2412" y1="34.141" x2="17.2412" y2="30.4501" gradientUnits="userSpaceOnUse">
<stop stop-color="#A7A7A7"/>
<stop offset="1" stop-color="#181818"/>
</linearGradient>
<linearGradient id="logo_p2" x1="5.97094" y1="25.6672" x2="3.73419" y2="26.5619" gradientUnits="userSpaceOnUse">
<stop stop-color="#181818"/>
<stop offset="1" stop-color="#A7A7A7"/>
</linearGradient>
<linearGradient id="logo_p3" x1="5.20684" y1="11.5999" x2="5.20684" y2="13.5771" gradientUnits="userSpaceOnUse">
<stop stop-color="#181818"/>
<stop offset="1" stop-color="#A7A7A7"/>
</linearGradient>
<linearGradient id="logo_p4" x1="17.1094" y1="3.95447" x2="17.1094" y2="7.51355" gradientUnits="userSpaceOnUse">
<stop stop-color="#181818"/>
<stop offset="1" stop-color="#A7A7A7"/>
</linearGradient>
<linearGradient id="logo_p5" x1="29.2331" y1="11.3519" x2="26.549" y2="12.2466" gradientUnits="userSpaceOnUse">
<stop stop-color="#181818"/>
<stop offset="1" stop-color="#A7A7A7"/>
</linearGradient>
<linearGradient id="logo_p6" x1="25.878" y1="23.8778" x2="29.6805" y2="26.5619" gradientUnits="userSpaceOnUse">
<stop stop-color="#181818"/>
<stop offset="1" stop-color="#A7A7A7"/>
</linearGradient>
<linearGradient id="logo_p7" x1="16.8725" y1="6.59143" x2="16.8725" y2="25.8369" gradientUnits="userSpaceOnUse">
<stop stop-color="#A7A7A7"/>
<stop offset="1" stop-color="#181818"/>
</linearGradient>
<linearGradient id="logo_p8" x1="16.6093" y1="12.2585" x2="16.6093" y2="31.7676" gradientUnits="userSpaceOnUse">
<stop stop-color="#A7A7A7"/>
<stop offset="1" stop-color="#181818"/>
</linearGradient>
<linearGradient id="logo_p9" x1="30.9772" y1="8.17236" x2="30.9772" y2="12.6542" gradientUnits="userSpaceOnUse">
<stop stop-color="#A7A7A7"/>
<stop offset="1" stop-color="#181818"/>
</linearGradient>
<linearGradient id="logo_p10" x1="16.7409" y1="0" x2="16.7409" y2="4.48181" gradientUnits="userSpaceOnUse">
<stop stop-color="#A7A7A7"/>
<stop offset="1" stop-color="#181818"/>
</linearGradient>
<linearGradient id="logo_p11" x1="16.7409" y1="33.7457" x2="16.7409" y2="38.2275" gradientUnits="userSpaceOnUse">
<stop stop-color="#A7A7A7"/>
<stop offset="1" stop-color="#181818"/>
</linearGradient>
<linearGradient id="logo_p12" x1="31.1086" y1="25.1781" x2="31.1086" y2="29.6599" gradientUnits="userSpaceOnUse">
<stop stop-color="#A7A7A7"/>
<stop offset="1" stop-color="#181818"/>
</linearGradient>
<linearGradient id="logo_p13" x1="2.24091" y1="8.43591" x2="2.24091" y2="12.9177" gradientUnits="userSpaceOnUse">
<stop stop-color="#A7A7A7"/>
<stop offset="1" stop-color="#181818"/>
</linearGradient>
<linearGradient id="logo_p14" x1="2.24091" y1="25.3098" x2="2.24091" y2="29.7916" gradientUnits="userSpaceOnUse">
<stop stop-color="#A7A7A7"/>
<stop offset="1" stop-color="#181818"/>
</linearGradient>
</defs>
</svg>
