<svg xmlns="http://www.w3.org/2000/svg" width="39" height="39" fill="#2b2b2b" viewBox="0 0 39 39">
  <path d="M19.22 38.95a19.5 19.5 0 0 1-10.3-3.5l-.95-.75c3.1 1.06 6.37 1.8 9.68 1.48 8.35-.82 15.04-7.59 13.5-16.31-1.53-8.6-10.52-11.58-18.22-11.85-.07 0-.15-.05-.22-.04L9.73 8 7.87 3.95 16.59 0h13.93l-2.28 2.4q3.78 1.52 6.35 4.69c2.7 3.34 4.2 7.5 4.37 11.8v1.17l-.16 1.92c-1.05 8.6-7.84 15.7-16.48 16.81l-1.76.16c-.44-.01-.89.02-1.33 0m-.91-36.63h-3.46l1.73 1.75z"/>
  <path d="M25.25 15.86c1.64 1.64 3.01 3.96 3.06 6.33a15 15 0 0 0-9.34-5.2c-5.39-.76-10.7 1.1-15.47 3.38L0 17.69l3.32-5.68c7-1.19 16.5-1.57 21.93 3.85M5.46 14.71l-2.85.68 1.77 1.06z"/>
  <path d="m27.85 27.55-1.18-.81c-7.22-4.72-15.86 0-21.16 5.36l-3.73-1.68.92-5.77.07-.12a33 33 0 0 1 9.3-3.92c4.08-.91 8.38-.67 11.88 1.78a10 10 0 0 1 3.9 5.16m-22.8.57.45-2.05L3 27.68z"/>
</svg>