<svg xmlns="http://www.w3.org/2000/svg" width="35" height="45" fill="none" viewBox="0 0 35 45">
  <path fill="#2b2b2b" d="M22.04 29.05a6.9 6.9 0 0 0 6.89-6.92 6.9 6.9 0 0 0-6.9-6.91 6.9 6.9 0 0 0-6.88 6.91 6.9 6.9 0 0 0 6.89 6.92"/>
  <path fill="url(#a)" d="M34.45 38.51c.58.59.53 1.56-.16 2.03a22 22 0 0 1-12.25 3.73c-4.54 0-8.75-1.38-12.25-3.73a1.32 1.32 0 0 1-.16-2.03l5.03-5.05a1.5 1.5 0 0 1 1.73-.24 12.3 12.3 0 0 0 11.3 0c.56-.3 1.27-.22 1.73.24z"/>
  <path fill="url(#b)" d="M34.29 3.73c.69.46.75 1.44.16 2.03l-5.03 5.05c-.46.46-1.16.53-1.74.24A12.42 12.42 0 0 0 11 27.8c.3.57.22 1.28-.23 1.73L5.73 34.6a1.3 1.3 0 0 1-2.02-.16A22 22 0 0 1 0 22.14 22.1 22.1 0 0 1 22.04 0c4.53 0 8.75 1.37 12.25 3.73"/>
  <defs>
    <linearGradient id="a" x1="9.54" x2="39.62" y1="38" y2="38" gradientUnits="userSpaceOnUse">
      <stop stop-color="#f41f95"/>
      <stop offset="1" stop-color="#b10152"/>
    </linearGradient>
    <linearGradient id="b" x1="17.43" x2="8.73" y1="0" y2="13.03" gradientUnits="userSpaceOnUse">
      <stop stop-color="#3be0fe"/>
      <stop offset="1" stop-color="#0180bb"/>
    </linearGradient>
  </defs>
</svg>