<svg xmlns="http://www.w3.org/2000/svg" width="109" height="90" fill="none" viewBox="0 0 109 90">
  <g fill="#e4e4e7" stroke="#e4e4e7" stroke-width=".5" clip-path="url(#hm_a)">
    <path d="m101.09 22.44-.19.1a5.63 5.63 0 0 1 1.67 7.61 5.5 5.5 0 0 1-3.2 2.49 6 6 0 0 1-4.56-.7l-.2.04-15 12.43a5.65 5.65 0 0 1-2.1 6.86 5.4 5.4 0 0 1-7-.67l-.21-.22a5.7 5.7 0 0 1-1.25-5.25q.07-.21.16-.38l.17-.3c.08-.19.1-.3.04-.43l-5.75-5.44c-1.72.71-3.37 1.08-5.25.24q-.55-.27-.96-.63-.38-.3-.75-.52l-11.34 6.2a1 1 0 0 0-.06.19q-.03.17-.01.4t.04.48l.01.24v.24a5.58 5.58 0 0 1-10.51 2.2l-7.94 1.2a5.9 5.9 0 0 1-2.7 4.21 5.8 5.8 0 0 1-4.41.54 5.6 5.6 0 0 1-3.52-2.63c-.75-1.34-.9-3.08-.06-5.09a5.3 5.3 0 0 1 5-3.12c1.98 0 4.01.98 4.95 2.94l7.93-1.2a6.3 6.3 0 0 1 2.79-4.2 5.6 5.6 0 0 1 5.15-.36c.45.18.76.42 1.04.65.25.2.47.37.75.52l11.36-6.12.02-.04.03-.22V34l-.03-.79q0-.39.06-.7l.05-.2c.55-2 2.42-3.78 4.48-4.1a5.6 5.6 0 0 1 5.92 8.07l6.02 5.43c1.93-.9 4.09-.95 5.9.34l15.1-12.55c-1.64-4 1.35-7.95 5.56-7.9h.03zM23.41 47.12A2.4 2.4 0 0 0 20.37 46a2.3 2.3 0 0 0-1.55 2.6l.06.26.05.17c.26.83.75 1.3 1.29 1.52.59.24 1.28.2 1.9-.06a2.7 2.7 0 0 0 1.43-1.3c.26-.59.29-1.3-.13-2.07Zm16.86-4.53a2.7 2.7 0 0 0-1.88.47c-.56.37-.97.93-1.1 1.55-.12.62.04 1.33.67 2.05a2.3 2.3 0 0 0 3.2.34 2.4 2.4 0 0 0 .76-3.17 2.2 2.2 0 0 0-1.65-1.24Zm36.31 2.84a2.3 2.3 0 0 0-1.67-1.2c-1.36-.27-2.39.58-2.76 1.67-.35 1.03-.11 2.19.94 2.78l.22.1.17.08c.86.33 1.56.26 2.09-.02.56-.3.97-.85 1.15-1.49.19-.64.15-1.34-.14-1.92ZM62.72 32.29c-.37-.51-1-.91-1.96-1-1.28-.1-2.18.9-2.37 2.1-.1.59 0 1.2.28 1.7.3.48.79.88 1.55 1.05.83.18 1.5-.02 1.98-.4.5-.4.81-1 .91-1.64s-.02-1.3-.4-1.81Zm36.14-7.3a2.5 2.5 0 0 0-1.9.05 2.7 2.7 0 0 0-1.43 1.31c-.27.58-.3 1.29.12 2.06a2.4 2.4 0 0 0 3.06 1.12 2.3 2.3 0 0 0 1.48-2.86c-.24-.93-.75-1.45-1.33-1.69Z"/>
    <path d="m38.72 93.48 7.47 2.25 13.6-45.25-7.47-2.25zm-16.07-4.83 7.3 2.2 8.72-29.02-7.3-2.2zM6.57 83.82l7.31 2.2 6.28-20.9-7.3-2.2zm84.85-10.64v.02c-.2.53-.6 1.01-1.1 1.23a1.4 1.4 0 0 1-.81.11 1.5 1.5 0 0 1-.8-.43 4.4 4.4 0 0 1-.57-1.17 1 1 0 0 1 0-.2L96.8 43.9l-7.3-2.2-18.49 61.49 7.31 2.2L86.5 78.2c.13-.44.44-.71.81-.85.36-.13.78-.13 1.16-.02s.73.34.95.68q.37.53.16 1.3l-8.1 26.96c.9.15 1.74.6 2.11 1.21.22.35.28.76.1 1.17q-.26.6-1.17 1.05l-.09.05L.74 85.2l-.05-.08q-.5-.89-.4-1.53c.08-.44.36-.74.73-.92.65-.3 1.6-.22 2.44.16L9.87 61.5c.17-.54.6-1.04 1.12-1.38a2.5 2.5 0 0 1 1.74-.46l.4.08c1.02.22 2.69.67 4.33 1.16 1.86.56 3.73 1.19 4.6 1.58.36.17.76.6 1.04 1.02q.22.34.33.68t.04.69L16.85 86.9l2.83.86 9.07-30.17c.07-.23.25-.4.45-.55q.32-.21.72-.36t.79-.21q.39-.08.7-.03c.9.13 2.74.62 4.54 1.17 1.81.54 3.62 1.14 4.47 1.51.5.23.98.7 1.28 1.25.3.53.47 1.18.3 1.75l-8.92 29.67 2.67.8 13.9-46.24.1-.18.16-.15a5 5 0 0 1 1.17-.8 2.6 2.6 0 0 1 1.6-.12c.93.19 2.74.66 4.5 1.19 1.77.52 3.52 1.1 4.34 1.49q.3.15.57.45a5 5 0 0 1 .9 1.43c.07.24.12.5.06.72l-13.9 46.24 2.67.8 11.36-37.79q.08-.25.28-.48a4 4 0 0 1 1.5-1.07 4.3 4.3 0 0 1 2.52.29c.41.18.79.43 1.03.77.26.35.36.77.22 1.26q-.17.56-.5.85-.35.27-.76.28-.4.01-.8-.11l-.56-.18-11.16 37.12 7.3 2.2 11.16-37.1a4 4 0 0 1-1.33-.55 1.5 1.5 0 0 1-.54-.68q-.16-.43 0-.97c.23-.67.74-1 1.34-1.08.58-.07 1.23.1 1.82.39s1.16.7 1.53 1.18c.38.47.61 1.03.45 1.58l-11.46 38.12 2.83.85 18.83-62.64c.09-.27.31-.47.56-.62q.39-.2.87-.32a5 5 0 0 1 1.73-.09c1.93.4 6.58 1.73 8.32 2.53q1.19.55 1.53 1.53c.23.64.22 1.37.06 2.14v.02z"/>
  </g>
  <defs>
    <clipPath id="hm_a">
      <path fill="#fff" d="m25.55 0 83.33 25.05-25.54 85L0 84.98z"/>
    </clipPath>
  </defs>
</svg>