<svg xmlns="http://www.w3.org/2000/svg" width="115" height="89" fill="none" viewBox="0 0 115 89">
  <g fill="#e4e4e7" stroke="#e4e4e7" stroke-width=".3" clip-path="url(#sp_a)">
    <path d="M31.28 65.75 24.8 87.33l20.75-3.45 1.21-4.07q0-.39-.3-1.12a27 27 0 0 0-.72-1.64q-.42-.89-.78-1.7a7 7 0 0 1-.48-1.38c-.12-.65.03-1.12.3-1.55q.2-.3.46-.59t.53-.6c.36-.42 1.69-1.8 2.93-3.12a124 124 0 0 0 2.23-2.43l.2-.27v-.01l.95-3.14zm16.42 8.03 7.9 19.36L70.55 76.2 62.9 56.87zM15.74 48.81l14.9 13.86 20.07-3.42.18-.17-15-13.84zm65.38 11.5q-1.94-.53-3.94-1t-3.97-.98c-1.24-.34-2.47-.75-3.7-1.13a29 29 0 0 0-3.45-.87l7.37 18.82c6.56 2.08 13.25 3.7 19.9 5.52L85.8 61.82a51 51 0 0 0-4.68-1.5Zm-18.14-23.8-6.52 21.67 1.23-.13c.71-.74 1.41-1.62 2.12-2.5s1.45-1.77 2.2-2.47c.32-.29.65-.5 1.09-.6h.05c1.53.2 3 .6 4.47 1.05s2.9.94 4.36 1.29a9 9 0 0 0 5.11-.2l6.49-21.58zm-24.83 6.4L53.57 57.3l6.44-21.4-15.38-14.56zM79.6 56.72q1.35.4 2.68.82 1.41.44 2.82.85.35.09.75.13t.81.12c.54.1 1.08.32 1.42.86l.01.01v.02l9.33 23.32.02.05-.26.86-.02.02c-2.88 3.21-5.63 6.67-8.8 9.6l-.04.03h-.05c-.78.09-1.4-.14-1.71-.6-.32-.47-.3-1.12.08-1.82v-.02l.02-.01 6.38-7.23-20.18-5.42-15.15 16.92 20.04 5.44 4.74-5.05.01-.01c.69-.59 1.51-.56 2.05-.13.5.4.72 1.11.38 1.91l-.08.16-.3.42q-.23.3-.58.7a102 102 0 0 1-4.25 4.69l-.16.14a2 2 0 0 1-1.2.38q-.68 0-1.43-.21-.74-.22-1.45-.48-.71-.25-1.26-.41c-4.7-1.23-9.54-2.37-14.22-3.7q-3.03-.88-6.04-1.87l-.06-.02-.03-.06-5.3-12.74-.1.34q-.09.4-.22.78c-.19.5-.49.97-1.13 1.14h-.01l-24.08 4.16h-.05l-.95-.12-.04-.01-.04-.03L4.03 73.97l-.01-.02-.01-.02-.66-1.18-.03-.05 3.83-12.73.03-.03a1.8 1.8 0 0 1 1.76-.45c.53.17.93.62 1.01 1.3l.01.15v.05l-3.3 11.2 15.25 14.27 6.48-21.58-15.26-14.33-1.57 5.22q-.01.05-.02.05l-.02.02-.03.03-.08.06-.52.38-.04.02-.05.02c-.94.23-1.9-.39-2.15-1.28l-.02-.04 2.54-8.44.09-.01 23.9-4.32 7.19-23.85c.18-.53.5-1.2 1.18-1.35h.01l24.08-4.15c.65-.1 1.11.14 1.58.46.13.1.46.39.88.77a97 97 0 0 1 3.48 3.42l.09.12c.2.44.19.96 0 1.38-.18.43-.55.79-1.05.85-.43.06-.9-.15-1.35-.46s-.93-.75-1.39-1.21c-.47-.47-.92-.95-1.34-1.35q-.62-.61-1.1-.84L47.25 19.6l15.04 13.96 20.1-3.49-6.76-6.5-.02-.03-.01-.03c-.35-.88-.17-1.62.36-2 .52-.37 1.32-.34 2.1.18.77.51 2.6 2.16 4.4 3.86 1.78 1.7 3.55 3.47 4.2 4.22q.42.52.69 1.12l.02.05z"/>
    <path d="M68.44 47.18c.55.1.91.4 1.11.78s.23.83.13 1.23-.34.8-.7 1.03c-.35.24-.81.33-1.34.17-.98-.3-1.29-1.2-1.1-1.97.1-.39.31-.75.64-.98q.5-.4 1.26-.26ZM75.81 41.47q.84.09 1.23.58c.26.31.37.71.36 1.1-.03.76-.56 1.54-1.47 1.56a1.8 1.8 0 0 1-1.37-.51c-.3-.32-.43-.74-.41-1.15.03-.82.64-1.65 1.66-1.58ZM74.4 46.9c1.03.16 1.42 1.11 1.3 1.91-.07.4-.28.8-.61 1.04q-.52.4-1.36.23c-.5-.12-.85-.4-1.04-.76a1.7 1.7 0 0 1-.13-1.14c.18-.77.86-1.45 1.84-1.29Z"/>
  </g>
  <defs>
    <clipPath id="sp_a">
      <path fill="#fff" d="m25.33 0 89.07 26.77-25.34 84.28L0 84.28z"/>
    </clipPath>
  </defs>
</svg>