<svg xmlns="http://www.w3.org/2000/svg" width="111" height="85" fill="none" viewBox="0 0 111 85">
  <path fill="#e4e4e7" d="M62.59 98.95c-5.35-.23-6.22-5.75-8.03-9.78l-5.62-.46c-2.67 3.18-4.24 8.46-9.28 7.84-1.82-.22-9.56-4.42-10.7-5.86-3-3.82.45-7.98 1.6-11.86l-3.35-4.3c-3.92.31-10.09 3.08-12.57-1.47-.96-1.77-2.68-7.62-3.08-9.71-1.09-5.82 5.54-7.03 9.54-8.85l.3-5.79c-3.21-2.52-8.29-4.18-7.69-9.11.23-1.82 4.42-9.56 5.86-10.7 3.97-3.11 8.02.7 12.1 1.53l4.2-3.42c-.77-4.7-3.4-10.6 2.45-12.94 2.03-.81 8.38-2.78 10.3-2.64 4.47.31 5.6 6.27 7.15 9.6l5.62.46c2.67-3.17 4.25-8.45 9.28-7.84 1.82.22 9.56 4.42 10.7 5.86 3 3.82-.45 7.99-1.6 11.87l3.36 4.3c4.47-.4 9.46-3.02 12.7 1.43l3.18 10.57c-.24 5.52-5.89 6.03-9.81 8.2l-.43 5.44c3.1 2.62 8.27 4.2 7.87 9.03-.15 1.82-4.29 9.59-5.68 10.78-3.87 3.29-8.1-.24-12.07-1.42l-4.44 3.48c.76 4.35 3.02 9.43-1.3 12.58zm-13.7-83.64c-1.06-.6-8.64 2.23-10.24 2.8-1.07 1.16 1.5 8.52.96 10.5q-.15.48-.54.8c-2.32.93-5.24 5.39-7.57 5.12-2.08-.25-5.87-2.84-8.02-3.11-.67-.09-1.05-.1-1.59.37-.34.31-4.3 7.7-4.41 8.16-.07.27-.18.45-.12.79.32 1.69 6.92 4.81 8.11 6.58.43.93-.33 3.73-.48 4.98-.2 1.83.52 3.7-1.14 4.92-1.48 1.08-8.2 3.17-8.53 4.34l3.05 10.13 10.3-1.03 6.01 7.32c-.01 2.1-3.8 8.36-3.13 9.95.2.47 6.88 4.15 7.83 4.5 1.22.46 1.52.7 2.57-.28 1.4-1.33 4.1-6.74 5.44-7.35 1.1-.5 3.64.32 4.98.48 1.1.13 2.84-.13 3.78.17 2.05.66 3.51 8.03 5.47 9.5.97.28 9.83-2.4 10.25-3.19L70.73 81.6c.28-1.04 2.5-2.1 3.42-2.87 1.44-1.2 2.77-3.29 4.7-3.05 1.98.25 7.56 3.71 9.15 3.05.47-.2 4.14-6.89 4.5-7.84.46-1.22.7-1.52-.29-2.57-1.32-1.4-6.73-4.1-7.34-5.43-.5-1.1.32-3.65.48-4.99.13-1.1-.13-2.84.17-3.78.65-2.04 8.02-3.47 9.5-5.47.27-.97-2.4-9.83-3.2-10.24l-10.15 1.13c-1.05-.29-2.1-2.5-2.87-3.41-1.2-1.43-3.3-2.65-3.05-4.7s3.7-7.57 3.04-9.16c-.13-.31-.32-.4-.53-.6-.33-.3-7.5-4.16-7.95-4.27-.27-.06-.45-.17-.78-.11-1.7.32-4.82 6.91-6.58 8.11-.93.43-3.74-.33-4.99-.48-1.1-.12-2.85.13-3.78-.17-1.95-.63-3.54-7.8-5.3-9.44"/>
  <path fill="#e4e4e7" d="M40.63 55.33c1.36-1.1 2.9-3.52 4.88-2.82 1.48.51 1.75 2.05 1.02 3.32-.3.53-5.34 5.16-6.02 5.6-1.15.73-1.44.83-2.69.2a59 59 0 0 1-6.52-4.75c-1.9-1.94.27-4.67 2.55-3.65.7.31 1.46 1.5 2.39 1.6-.28-14.22 15.6-23.4 28-16.44 1.6.9 5.23 3.2 3.9 5.36-1.74 2.78-5.11-1.06-7.1-1.97-9.79-4.45-20.82 2.92-20.42 13.55M74.41 55.16l-.51.33c-.33 13.29-14.2 22.17-26.5 16.84-1.9-.82-6.9-3.54-5.53-6.1 1.44-2.67 3.65-.1 4.97.68 8.27 4.86 18.22 2.44 21.74-6.88.6-1.57 1.19-3.88.69-5.44-1.3 1.24-3.13 3.93-5.12 2.6-.93-.63-1.3-1.51-.92-2.6.26-.73 6.32-6.39 7.06-6.63.58-.19 1.37.01 1.92.29 1.04.51 4.48 3.14 5.51 4 4.23 3.52-.56 6.57-3.3 2.9"/>
</svg>