<svg xmlns="http://www.w3.org/2000/svg" width="62" height="62" fill="none" viewBox="0 0 62 62">
  <path fill="#000" d="M30.6 62a31 31 0 0 1-16.42-5.58l-1.5-1.2c4.95 1.7 10.14 2.87 15.4 2.36 13.3-1.3 23.95-12.08 21.49-25.96-2.43-13.69-16.74-18.43-28.99-18.86-.12 0-.23-.07-.36-.06l-4.74.05-2.95-6.46L26.4 0h22.17l-3.63 3.8c4 1.6 7.4 4.14 10.1 7.48a31.7 31.7 0 0 1 6.95 18.78v1.87l-.24 3.05C60.06 48.65 49.25 59.96 35.5 61.74l-2.8.25c-.7-.02-1.41.03-2.12 0M29.13 3.68h-5.5l2.75 2.78z"/>
  <path fill="#000" d="M40.19 25.24c2.6 2.6 4.79 6.3 4.86 10.08-3.82-4.46-9-7.44-14.86-8.28-8.57-1.21-17.02 1.74-24.61 5.38L0 28.15l5.28-9.03c11.16-1.9 26.27-2.51 34.9 6.12M8.69 23.4l-4.53 1.1 2.8 1.68z"/>
  <path fill="#000" d="m44.32 43.85-1.88-1.3c-11.48-7.5-25.24.01-33.67 8.54l-5.94-2.68 1.47-9.17.1-.2c4.6-2.7 9.58-5.06 14.82-6.23 6.49-1.46 13.33-1.08 18.9 2.82 2.78 1.96 5.26 4.9 6.2 8.22m-36.3.9.74-3.26-4 2.57z"/>
</svg>